:SAMPLES-PER-SECOND 30
:FULLY-SPECIFIED
:DEGREES
521
root  -3.80209 40.7938 -2.88417 -168.686 -88.0924 164.928
RightUpLeg  2.01181 -10.5644 -6.83725
RightLeg  9.69443 -8.86478 1.85139
RightFoot  -7.03094 -0.116495 1.80948
RightToes  0.00048216 0.542163 -0.142577
Spine  7.47547 -0.0352472 -2.99389
Spine1  2.41432 -0.174045 0.377577
HEad  -11.1249 -9.64461 -3.85308
LeftShoulder1  0.46064 0.0742789 -5.52586
LeftArm  -21.8705 18.5851 -12.2634
LeftForeArm  4.96063 -2.63127 0.492056
LeftHand  -0.25398 0.0180481 5.50724
RightShoulder  0.377687 -0.645039 5.43251
RightArm  -20.0249 -7.66997 4.31343
RightForeArm  -29.2452 2.87588 4.53787
RightHand  -8.05196 18.8186 -37.6617
LeftUpLeg  2.90483 4.08604 -2.20425
LeftLeg  2.12303 20.5798 -5.48056
LeftFoot  -4.78662 -0.208612 4.1457
LeftToes  1.06246e-005 4.65855e-005 -8.185e-006
522
root  -3.7578 40.7915 -2.88995 -169.7 -87.9925 165.85
RightUpLeg  2.00959 -10.5165 -6.78827
RightLeg  9.70978 -8.78926 1.81125
RightFoot  -7.00786 -0.126436 1.92465
RightToes  0.00048216 0.542163 -0.142577
Spine  7.46484 -0.0665213 -2.87213
Spine1  2.39406 -0.174719 0.242979
HEad  -11.581 -9.43646 -4.97268
LeftShoulder1  0.455034 0.084572 -5.40183
LeftArm  -21.9274 18.6896 -12.3618
LeftForeArm  5.02383 -2.81006 0.487245
LeftHand  -0.25398 0.0180481 5.50724
RightShoulder  0.38011 -0.643226 5.51795
RightArm  -19.9981 -7.83989 4.30028
RightForeArm  -29.4249 2.98416 4.55204
RightHand  -8.01188 18.7047 -37.6526
LeftUpLeg  2.93017 4.12287 -2.17989
LeftLeg  2.12553 20.6872 -5.48936
LeftFoot  -4.73298 -0.214584 4.21037
LeftToes  1.06246e-005 4.65855e-005 -8.185e-006
523
root  -3.71441 40.7899 -2.90212 -169.949 -87.8815 165.943
RightUpLeg  2.04007 -10.4751 -6.74918
RightLeg  9.79751 -8.65515 1.71234
RightFoot  -7.03035 -0.137609 2.06697
RightToes  0.00048216 0.542163 -0.142577
Spine  7.55434 -0.128341 -2.74619
Spine1  2.35264 -0.174978 -0.0572266
HEad  -11.9529 -9.0831 -5.85979
LeftShoulder1  0.457842 -0.00505482 -5.14671
LeftArm  -21.9427 18.9685 -12.3704
LeftForeArm  4.9662 -3.02159 0.481901
LeftHand  -0.25398 0.0180481 5.50724
RightShoulder  0.406783 -0.498768 5.79698
RightArm  -19.7888 -7.95026 4.15863
RightForeArm  -29.3256 2.95351 4.59363
RightHand  -7.89488 18.5294 -37.3986
LeftUpLeg  3.01738 4.1558 -2.1715
LeftLeg  2.15213 20.7807 -5.48715
LeftFoot  -4.68999 -0.219801 4.26369
LeftToes  1.06246e-005 4.65855e-005 -8.185e-006
524
root  -3.66755 40.7898 -2.91943 -169.926 -87.7363 165.793
RightUpLeg  1.97701 -10.5239 -6.71979
RightLeg  9.98295 -8.44814 1.60891
RightFoot  -7.06606 -0.133287 1.98046
RightToes  0.00048216 0.542163 -0.142577
Spine  7.69517 -0.187642 -2.6079
Spine1  2.24363 -0.151032 -0.46212
HEad  -12.1369 -8.84759 -6.48993
LeftShoulder1  0.460789 -0.0830691 -4.88013
LeftArm  -21.9254 19.1873 -12.2921
LeftForeArm  4.86963 -3.16051 0.476697
LeftHand  -0.25398 0.0180481 5.50724
RightShoulder  0.447267 -0.288364 6.21999
RightArm  -19.4202 -8.00804 3.90624
RightForeArm  -28.9464 2.90176 4.6682
RightHand  -7.83571 18.4827 -37.208
LeftUpLeg  3.08334 4.165 -2.1815
LeftLeg  2.13563 20.9168 -5.48663
LeftFoot  -4.62334 -0.225773 4.30254
LeftToes  1.06246e-005 4.65855e-005 -8.185e-006
525
root  -3.62349 40.7903 -2.94212 -169.963 -87.6031 165.826
RightUpLeg  1.80178 -10.5913 -6.66978
RightLeg  10.1441 -8.31428 1.5549
RightFoot  -7.06515 -0.116173 1.71062
RightToes  0.00048216 0.542163 -0.142577
Spine  7.81704 -0.191416 -2.55994
Spine1  2.0074 -0.105747 -0.710012
HEad  -12.1477 -8.87444 -6.9873
LeftShoulder1  0.46472 -0.124402 -4.84112
LeftArm  -21.983 19.1936 -12.0915
LeftForeArm  4.91184 -3.22967 0.504913
LeftHand  -0.25398 0.0180481 5.50724
RightShoulder  0.477037 -0.158576 6.61557
RightArm  -19.0463 -8.08922 3.64239
RightForeArm  -28.2328 3.00435 4.74199
RightHand  -7.83558 18.5128 -37.1639
LeftUpLeg  3.03602 4.15991 -2.18074
LeftLeg  2.08439 21.0636 -5.49703
LeftFoot  -4.51943 -0.230989 4.3203
LeftToes  1.06246e-005 4.65855e-005 -8.185e-006
526
root  -3.59101 40.7912 -2.97067 -169.687 -87.5543 165.611
RightUpLeg  1.65244 -10.5917 -6.61222
RightLeg  10.1843 -8.32367 1.5488
RightFoot  -7.04178 -0.106579 1.57887
RightToes  0.00048216 0.542163 -0.142577
Spine  7.92081 -0.153895 -2.70338
Spine1  1.68451 -0.0920967 -0.640594
HEad  -12.1382 -9.0401 -7.48456
LeftShoulder1  0.482043 -0.211073 -5.03142
LeftArm  -22.0793 19.1173 -11.8279
LeftForeArm  5.11592 -3.24643 0.559892
LeftHand  -0.25398 0.0180481 5.50724
RightShoulder  0.489068 -0.1219 6.84068
RightArm  -18.8252 -8.21809 3.49847
RightForeArm  -27.1921 3.24107 4.76638
RightHand  -7.76785 18.4092 -37.016
LeftUpLeg  2.92835 4.16459 -2.15515
LeftLeg  2.05147 21.1194 -5.51657
LeftFoot  -4.41238 -0.234315 4.30967
LeftToes  1.06246e-005 4.65855e-005 -8.185e-006
527
root  -3.57157 40.7922 -3.00294 -168.696 -87.5967 164.648
RightUpLeg  1.62613 -10.563 -6.59112
RightLeg  10.1412 -8.39468 1.56309
RightFoot  -7.03427 -0.111116 1.71934
RightToes  0.00048216 0.542163 -0.142577
Spine  8.041 -0.133229 -2.96439
Spine1  1.37202 -0.134487 -0.410608
HEad  -12.1532 -9.16222 -7.93569
LeftShoulder1  0.507877 -0.364456 -5.20983
LeftArm  -22.0673 19.1026 -11.6625
LeftForeArm  5.28971 -3.17658 0.586745
LeftHand  -0.25398 0.0180481 5.50724
RightShoulder  0.494982 -0.0965956 6.91486
RightArm  -18.7456 -8.33242 3.5238
RightForeArm  -26.2523 3.44156 4.75546
RightHand  -7.60516 18.1371 -36.6901
LeftUpLeg  2.87987 4.17317 -2.13128
LeftLeg  2.02305 21.0664 -5.5373
LeftFoot  -4.32248 -0.237291 4.29275
LeftToes  1.06246e-005 4.65855e-005 -8.185e-006
528
root  -3.55953 40.7947 -3.03395 -167.178 -87.6575 163.136
RightUpLeg  1.63538 -10.5711 -6.60494
RightLeg  10.1005 -8.45083 1.58176
RightFoot  -7.0316 -0.118079 1.86604
RightToes  0.00048216 0.542163 -0.142577
Spine  8.17366 -0.136812 -3.16966
Spine1  1.06988 -0.180064 -0.274838
HEad  -12.0438 -9.20022 -8.21144
LeftShoulder1  0.527238 -0.498588 -5.26284
LeftArm  -21.9138 19.0691 -11.6515
LeftForeArm  5.29284 -3.00682 0.55355
LeftHand  -0.25398 0.0180481 5.50724
RightShoulder  0.502066 -0.0628343 6.98607
RightArm  -18.6337 -8.36697 3.60565
RightForeArm  -25.9368 3.50013 4.77994
RightHand  -7.52273 17.9898 -36.5355
LeftUpLeg  2.8959 4.15296 -2.14312
LeftLeg  1.91326 21.0201 -5.56387
LeftFoot  -4.2056 -0.243524 4.31078
LeftToes  1.06246e-005 4.65855e-005 -8.185e-006
